# xmcd
#
# Track frame offsets:
#   150
#   16303
#   29662
#   44371
#   59648
#   78371
#   96001
#   118094
#   134731
#   152063
#
# Disc length: 2279 seconds
#
# Revision: 0
# Processed by: cddbd v1.5.2PL0 Copyright (c) Steve Scherf et al.
# Submitted via: GXTranscoder 2.0.1939
#
DISCID=8808e50a
DTITLE=krzysztof krawczyk - tacy samotni
DYEAR=2006
DGENRE=Folk
TTITLE0=tacy samotni
TTITLE1=to wszystko sprawil grzech
TTITLE2=tylko ty, tylko ja - ze soba i dla siebie
TTITLE3=to moje zycie
TTITLE4=kochaj mnie w niepogode
TTITLE5=zycie jak muzyka
TTITLE6=aniol obok spi
TTITLE7=bez twojej wiary
TTITLE8=nieposkladani
TTITLE9=spieszmy sie
EXTD=
EXTT0=
EXTT1=
EXTT2=
EXTT3=
EXTT4=
EXTT5=
EXTT6=
EXTT7=
EXTT8=
EXTT9=
PLAYORDER=
